<svg xmlns="http://www.w3.org/2000/svg" xmlns:xlink="http://www.w3.org/1999/xlink" width="500" zoomAndPan="magnify" viewBox="0 0 375 187.499995" height="250" preserveAspectRatio="xMidYMid meet" version="1.0"><defs><g/><clipPath id="e0c881b819"><path d="M 23.964844 43.457031 L 95 43.457031 L 95 143.6875 L 23.964844 143.6875 Z M 23.964844 43.457031 " clip-rule="nonzero"/></clipPath></defs><g fill="#000000" fill-opacity="1"><g transform="translate(102.754428, 101.198516)"><g><path d="M 32.0625 -33.59375 L 32.0625 0 L 23.875 0 L 23.875 -13.828125 L 11.140625 -13.828125 L 11.140625 0 L 2.96875 0 L 2.96875 -33.59375 L 11.140625 -33.59375 L 11.140625 -20.421875 L 23.875 -20.421875 L 23.875 -33.59375 Z M 32.0625 -33.59375 "/></g></g></g><g fill="#000000" fill-opacity="1"><g transform="translate(137.731971, 101.198516)"><g><path d="M 41 -33.59375 L 41 0 L 32.828125 0 L 32.828125 -20.140625 L 25.3125 0 L 18.703125 0 L 11.140625 -20.1875 L 11.140625 0 L 2.96875 0 L 2.96875 -33.59375 L 12.625 -33.59375 L 22.0625 -10.328125 L 31.390625 -33.59375 Z M 41 -33.59375 "/></g></g></g><g fill="#000000" fill-opacity="1"><g transform="translate(181.657261, 101.198516)"><g><path d="M 15.125 0.328125 C 12.664062 0.328125 10.460938 -0.0664062 8.515625 -0.859375 C 6.566406 -1.660156 5.007812 -2.84375 3.84375 -4.40625 C 2.6875 -5.96875 2.078125 -7.847656 2.015625 -10.046875 L 10.71875 -10.046875 C 10.84375 -8.804688 11.269531 -7.859375 12 -7.203125 C 12.738281 -6.546875 13.695312 -6.21875 14.875 -6.21875 C 16.09375 -6.21875 17.050781 -6.492188 17.75 -7.046875 C 18.445312 -7.609375 18.796875 -8.382812 18.796875 -9.375 C 18.796875 -10.207031 18.515625 -10.894531 17.953125 -11.4375 C 17.398438 -11.976562 16.71875 -12.421875 15.90625 -12.765625 C 15.09375 -13.117188 13.9375 -13.519531 12.4375 -13.96875 C 10.269531 -14.632812 8.5 -15.300781 7.125 -15.96875 C 5.757812 -16.644531 4.582031 -17.632812 3.59375 -18.9375 C 2.601562 -20.25 2.109375 -21.957031 2.109375 -24.0625 C 2.109375 -27.1875 3.238281 -29.632812 5.5 -31.40625 C 7.769531 -33.175781 10.722656 -34.0625 14.359375 -34.0625 C 18.054688 -34.0625 21.035156 -33.175781 23.296875 -31.40625 C 25.566406 -29.632812 26.78125 -27.171875 26.9375 -24.015625 L 18.078125 -24.015625 C 18.015625 -25.097656 17.613281 -25.953125 16.875 -26.578125 C 16.144531 -27.203125 15.207031 -27.515625 14.0625 -27.515625 C 13.070312 -27.515625 12.273438 -27.25 11.671875 -26.71875 C 11.066406 -26.195312 10.765625 -25.441406 10.765625 -24.453125 C 10.765625 -23.367188 11.273438 -22.519531 12.296875 -21.90625 C 13.316406 -21.300781 14.910156 -20.648438 17.078125 -19.953125 C 19.242188 -19.210938 21.003906 -18.507812 22.359375 -17.84375 C 23.722656 -17.175781 24.894531 -16.203125 25.875 -14.921875 C 26.863281 -13.648438 27.359375 -12.007812 27.359375 -10 C 27.359375 -8.082031 26.875 -6.34375 25.90625 -4.78125 C 24.9375 -3.21875 23.523438 -1.972656 21.671875 -1.046875 C 19.816406 -0.128906 17.632812 0.328125 15.125 0.328125 Z M 15.125 0.328125 "/></g></g></g><g fill="#2c435f" fill-opacity="1"><g transform="translate(211.086628, 101.198516)"><g><path d="M 33.015625 0 L 24.828125 0 L 11.140625 -20.71875 L 11.140625 0 L 2.96875 0 L 2.96875 -33.59375 L 11.140625 -33.59375 L 24.828125 -12.78125 L 24.828125 -33.59375 L 33.015625 -33.59375 Z M 33.015625 0 "/></g></g></g><g fill="#2c435f" fill-opacity="1"><g transform="translate(247.068996, 101.198516)"><g><path d="M 18.84375 0.328125 C 15.6875 0.328125 12.789062 -0.398438 10.15625 -1.859375 C 7.53125 -3.328125 5.441406 -5.375 3.890625 -8 C 2.347656 -10.632812 1.578125 -13.597656 1.578125 -16.890625 C 1.578125 -20.171875 2.347656 -23.117188 3.890625 -25.734375 C 5.441406 -28.347656 7.53125 -30.390625 10.15625 -31.859375 C 12.789062 -33.328125 15.6875 -34.0625 18.84375 -34.0625 C 22.007812 -34.0625 24.90625 -33.328125 27.53125 -31.859375 C 30.164062 -30.390625 32.238281 -28.347656 33.75 -25.734375 C 35.269531 -23.117188 36.03125 -20.171875 36.03125 -16.890625 C 36.03125 -13.597656 35.265625 -10.632812 33.734375 -8 C 32.203125 -5.375 30.128906 -3.328125 27.515625 -1.859375 C 24.898438 -0.398438 22.007812 0.328125 18.84375 0.328125 Z M 18.84375 -7.125 C 21.53125 -7.125 23.675781 -8.015625 25.28125 -9.796875 C 26.894531 -11.585938 27.703125 -13.953125 27.703125 -16.890625 C 27.703125 -19.859375 26.894531 -22.226562 25.28125 -24 C 23.675781 -25.769531 21.53125 -26.65625 18.84375 -26.65625 C 16.132812 -26.65625 13.972656 -25.773438 12.359375 -24.015625 C 10.753906 -22.265625 9.953125 -19.890625 9.953125 -16.890625 C 9.953125 -13.921875 10.753906 -11.550781 12.359375 -9.78125 C 13.972656 -8.007812 16.132812 -7.125 18.84375 -7.125 Z M 18.84375 -7.125 "/></g></g></g><g fill="#2c435f" fill-opacity="1"><g transform="translate(284.678231, 101.198516)"><g><path d="M 34.5 -33.59375 L 22.578125 0 L 12.34375 0 L 0.4375 -33.59375 L 9.140625 -33.59375 L 17.46875 -8.234375 L 25.828125 -33.59375 Z M 34.5 -33.59375 "/></g></g></g><g fill="#2c435f" fill-opacity="1"><g transform="translate(319.607929, 101.198516)"><g><path d="M 23.875 -5.9375 L 11.34375 -5.9375 L 9.328125 0 L 0.765625 0 L 12.921875 -33.59375 L 22.390625 -33.59375 L 34.546875 0 L 25.890625 0 Z M 21.765625 -12.25 L 17.609375 -24.546875 L 13.484375 -12.25 Z M 21.765625 -12.25 "/></g></g></g><g fill="#000000" fill-opacity="1"><g transform="translate(103.983473, 127.05735)"><g><path d="M 2.546875 -9.46875 L 2.546875 -5.921875 L 6.421875 -5.921875 L 6.421875 -4.78125 L 2.546875 -4.78125 L 2.546875 -1.140625 L 6.875 -1.140625 L 6.875 0 L 1.171875 0 L 1.171875 -10.609375 L 6.875 -10.609375 L 6.875 -9.46875 Z M 2.546875 -9.46875 "/></g></g></g><g fill="#000000" fill-opacity="1"><g transform="translate(114.133878, 127.05735)"><g><path d="M 9.5 0 L 8.125 0 L 2.546875 -8.4375 L 2.546875 0 L 1.171875 0 L 1.171875 -10.609375 L 2.546875 -10.609375 L 8.125 -2.1875 L 8.125 -10.609375 L 9.5 -10.609375 Z M 9.5 0 "/></g></g></g><g fill="#000000" fill-opacity="1"><g transform="translate(127.171128, 127.05735)"><g/></g></g><g fill="#000000" fill-opacity="1"><g transform="translate(133.583836, 127.05735)"><g><path d="M 9.5 0 L 8.125 0 L 2.546875 -8.4375 L 2.546875 0 L 1.171875 0 L 1.171875 -10.609375 L 2.546875 -10.609375 L 8.125 -2.1875 L 8.125 -10.609375 L 9.5 -10.609375 Z M 9.5 0 "/></g></g></g><g fill="#000000" fill-opacity="1"><g transform="translate(146.621086, 127.05735)"><g><path d="M 8.59375 -10.59375 L 5.140625 -4 L 5.140625 0 L 3.75 0 L 3.75 -4 L 0.28125 -10.59375 L 1.828125 -10.59375 L 4.4375 -5.234375 L 7.046875 -10.59375 Z M 8.59375 -10.59375 "/></g></g></g><g fill="#000000" fill-opacity="1"><g transform="translate(157.850262, 127.05735)"><g/></g></g><g fill="#000000" fill-opacity="1"><g transform="translate(164.262966, 127.05735)"><g><path d="M 4.53125 0.109375 C 3.832031 0.109375 3.207031 -0.015625 2.65625 -0.265625 C 2.101562 -0.515625 1.664062 -0.859375 1.34375 -1.296875 C 1.03125 -1.742188 0.867188 -2.253906 0.859375 -2.828125 L 2.34375 -2.828125 C 2.394531 -2.328125 2.597656 -1.90625 2.953125 -1.5625 C 3.316406 -1.226562 3.84375 -1.0625 4.53125 -1.0625 C 5.1875 -1.0625 5.703125 -1.222656 6.078125 -1.546875 C 6.460938 -1.878906 6.65625 -2.304688 6.65625 -2.828125 C 6.65625 -3.234375 6.539062 -3.5625 6.3125 -3.8125 C 6.09375 -4.070312 5.816406 -4.265625 5.484375 -4.390625 C 5.148438 -4.523438 4.703125 -4.664062 4.140625 -4.8125 C 3.441406 -5 2.878906 -5.179688 2.453125 -5.359375 C 2.035156 -5.546875 1.675781 -5.832031 1.375 -6.21875 C 1.070312 -6.613281 0.921875 -7.140625 0.921875 -7.796875 C 0.921875 -8.378906 1.066406 -8.890625 1.359375 -9.328125 C 1.660156 -9.773438 2.078125 -10.117188 2.609375 -10.359375 C 3.140625 -10.609375 3.75 -10.734375 4.4375 -10.734375 C 5.425781 -10.734375 6.238281 -10.484375 6.875 -9.984375 C 7.507812 -9.492188 7.867188 -8.835938 7.953125 -8.015625 L 6.4375 -8.015625 C 6.382812 -8.421875 6.171875 -8.773438 5.796875 -9.078125 C 5.421875 -9.390625 4.921875 -9.546875 4.296875 -9.546875 C 3.722656 -9.546875 3.253906 -9.394531 2.890625 -9.09375 C 2.523438 -8.800781 2.34375 -8.382812 2.34375 -7.84375 C 2.34375 -7.457031 2.453125 -7.140625 2.671875 -6.890625 C 2.890625 -6.648438 3.15625 -6.46875 3.46875 -6.34375 C 3.789062 -6.21875 4.238281 -6.070312 4.8125 -5.90625 C 5.519531 -5.71875 6.082031 -5.53125 6.5 -5.34375 C 6.925781 -5.15625 7.289062 -4.863281 7.59375 -4.46875 C 7.90625 -4.082031 8.0625 -3.554688 8.0625 -2.890625 C 8.0625 -2.367188 7.921875 -1.878906 7.640625 -1.421875 C 7.367188 -0.972656 6.960938 -0.601562 6.421875 -0.3125 C 5.890625 -0.03125 5.257812 0.109375 4.53125 0.109375 Z M 4.53125 0.109375 "/></g></g></g><g fill="#000000" fill-opacity="1"><g transform="translate(175.537717, 127.05735)"><g><path d="M 7.6875 -10.59375 L 7.6875 -9.46875 L 4.796875 -9.46875 L 4.796875 0 L 3.421875 0 L 3.421875 -9.46875 L 0.515625 -9.46875 L 0.515625 -10.59375 Z M 7.6875 -10.59375 "/></g></g></g><g fill="#000000" fill-opacity="1"><g transform="translate(186.113552, 127.05735)"><g><path d="M 7.4375 -2.359375 L 2.8125 -2.359375 L 1.96875 0 L 0.5 0 L 4.328125 -10.53125 L 5.921875 -10.53125 L 9.75 0 L 8.28125 0 Z M 7.046875 -3.484375 L 5.125 -8.828125 L 3.203125 -3.484375 Z M 7.046875 -3.484375 "/></g></g></g><g fill="#000000" fill-opacity="1"><g transform="translate(198.710175, 127.05735)"><g><path d="M 9.5 0 L 8.125 0 L 2.546875 -8.4375 L 2.546875 0 L 1.171875 0 L 1.171875 -10.609375 L 2.546875 -10.609375 L 8.125 -2.1875 L 8.125 -10.609375 L 9.5 -10.609375 Z M 9.5 0 "/></g></g></g><g fill="#000000" fill-opacity="1"><g transform="translate(211.747422, 127.05735)"><g><path d="M 4.46875 -10.59375 C 5.625 -10.59375 6.625 -10.375 7.46875 -9.9375 C 8.3125 -9.507812 8.957031 -8.894531 9.40625 -8.09375 C 9.863281 -7.300781 10.09375 -6.363281 10.09375 -5.28125 C 10.09375 -4.195312 9.863281 -3.253906 9.40625 -2.453125 C 8.957031 -1.660156 8.3125 -1.050781 7.46875 -0.625 C 6.625 -0.207031 5.625 0 4.46875 0 L 1.171875 0 L 1.171875 -10.59375 Z M 4.46875 -1.140625 C 5.832031 -1.140625 6.875 -1.5 7.59375 -2.21875 C 8.320312 -2.945312 8.6875 -3.96875 8.6875 -5.28125 C 8.6875 -6.59375 8.320312 -7.617188 7.59375 -8.359375 C 6.863281 -9.097656 5.820312 -9.46875 4.46875 -9.46875 L 2.546875 -9.46875 L 2.546875 -1.140625 Z M 4.46875 -1.140625 "/></g></g></g><g fill="#000000" fill-opacity="1"><g transform="translate(224.845447, 127.05735)"><g><path d="M 7.4375 -2.359375 L 2.8125 -2.359375 L 1.96875 0 L 0.5 0 L 4.328125 -10.53125 L 5.921875 -10.53125 L 9.75 0 L 8.28125 0 Z M 7.046875 -3.484375 L 5.125 -8.828125 L 3.203125 -3.484375 Z M 7.046875 -3.484375 "/></g></g></g><g fill="#000000" fill-opacity="1"><g transform="translate(237.442069, 127.05735)"><g><path d="M 6.75 0 L 4.21875 -4.328125 L 2.546875 -4.328125 L 2.546875 0 L 1.171875 0 L 1.171875 -10.59375 L 4.59375 -10.59375 C 5.394531 -10.59375 6.070312 -10.457031 6.625 -10.1875 C 7.175781 -9.914062 7.585938 -9.546875 7.859375 -9.078125 C 8.128906 -8.609375 8.265625 -8.078125 8.265625 -7.484375 C 8.265625 -6.753906 8.054688 -6.109375 7.640625 -5.546875 C 7.222656 -4.992188 6.59375 -4.625 5.75 -4.4375 L 8.40625 0 Z M 2.546875 -5.4375 L 4.59375 -5.4375 C 5.34375 -5.4375 5.90625 -5.617188 6.28125 -5.984375 C 6.65625 -6.359375 6.84375 -6.859375 6.84375 -7.484375 C 6.84375 -8.109375 6.65625 -8.59375 6.28125 -8.9375 C 5.914062 -9.28125 5.351562 -9.453125 4.59375 -9.453125 L 2.546875 -9.453125 Z M 2.546875 -5.4375 "/></g></g></g><g fill="#000000" fill-opacity="1"><g transform="translate(249.0359, 127.05735)"><g><path d="M 4.46875 -10.59375 C 5.625 -10.59375 6.625 -10.375 7.46875 -9.9375 C 8.3125 -9.507812 8.957031 -8.894531 9.40625 -8.09375 C 9.863281 -7.300781 10.09375 -6.363281 10.09375 -5.28125 C 10.09375 -4.195312 9.863281 -3.253906 9.40625 -2.453125 C 8.957031 -1.660156 8.3125 -1.050781 7.46875 -0.625 C 6.625 -0.207031 5.625 0 4.46875 0 L 1.171875 0 L 1.171875 -10.59375 Z M 4.46875 -1.140625 C 5.832031 -1.140625 6.875 -1.5 7.59375 -2.21875 C 8.320312 -2.945312 8.6875 -3.96875 8.6875 -5.28125 C 8.6875 -6.59375 8.320312 -7.617188 7.59375 -8.359375 C 6.863281 -9.097656 5.820312 -9.46875 4.46875 -9.46875 L 2.546875 -9.46875 L 2.546875 -1.140625 Z M 4.46875 -1.140625 "/></g></g></g><g fill="#000000" fill-opacity="1"><g transform="translate(262.133925, 127.05735)"><g/></g></g><g fill="#000000" fill-opacity="1"><g transform="translate(268.546629, 127.05735)"><g><path d="M 7.15625 -10.59375 L 7.15625 -9.46875 L 2.546875 -9.46875 L 2.546875 -5.90625 L 6.296875 -5.90625 L 6.296875 -4.78125 L 2.546875 -4.78125 L 2.546875 0 L 1.171875 0 L 1.171875 -10.59375 Z M 7.15625 -10.59375 "/></g></g></g><g fill="#000000" fill-opacity="1"><g transform="translate(278.560285, 127.05735)"><g><path d="M 5.96875 0.109375 C 4.988281 0.109375 4.09375 -0.117188 3.28125 -0.578125 C 2.46875 -1.046875 1.828125 -1.691406 1.359375 -2.515625 C 0.890625 -3.335938 0.65625 -4.269531 0.65625 -5.3125 C 0.65625 -6.34375 0.890625 -7.269531 1.359375 -8.09375 C 1.828125 -8.914062 2.46875 -9.554688 3.28125 -10.015625 C 4.09375 -10.484375 4.988281 -10.71875 5.96875 -10.71875 C 6.96875 -10.71875 7.867188 -10.484375 8.671875 -10.015625 C 9.484375 -9.554688 10.125 -8.914062 10.59375 -8.09375 C 11.0625 -7.28125 11.296875 -6.351562 11.296875 -5.3125 C 11.296875 -4.257812 11.0625 -3.320312 10.59375 -2.5 C 10.125 -1.6875 9.484375 -1.046875 8.671875 -0.578125 C 7.867188 -0.117188 6.96875 0.109375 5.96875 0.109375 Z M 5.96875 -1.09375 C 6.707031 -1.09375 7.375 -1.265625 7.96875 -1.609375 C 8.5625 -1.953125 9.023438 -2.441406 9.359375 -3.078125 C 9.703125 -3.722656 9.875 -4.46875 9.875 -5.3125 C 9.875 -6.15625 9.703125 -6.894531 9.359375 -7.53125 C 9.023438 -8.164062 8.5625 -8.65625 7.96875 -9 C 7.382812 -9.34375 6.71875 -9.515625 5.96875 -9.515625 C 5.21875 -9.515625 4.550781 -9.34375 3.96875 -9 C 3.382812 -8.65625 2.921875 -8.164062 2.578125 -7.53125 C 2.234375 -6.894531 2.0625 -6.15625 2.0625 -5.3125 C 2.0625 -4.46875 2.234375 -3.722656 2.578125 -3.078125 C 2.921875 -2.441406 3.382812 -1.953125 3.96875 -1.609375 C 4.5625 -1.265625 5.226562 -1.09375 5.96875 -1.09375 Z M 5.96875 -1.09375 "/></g></g></g><g fill="#000000" fill-opacity="1"><g transform="translate(292.858626, 127.05735)"><g><path d="M 6.75 0 L 4.21875 -4.328125 L 2.546875 -4.328125 L 2.546875 0 L 1.171875 0 L 1.171875 -10.59375 L 4.59375 -10.59375 C 5.394531 -10.59375 6.070312 -10.457031 6.625 -10.1875 C 7.175781 -9.914062 7.585938 -9.546875 7.859375 -9.078125 C 8.128906 -8.609375 8.265625 -8.078125 8.265625 -7.484375 C 8.265625 -6.753906 8.054688 -6.109375 7.640625 -5.546875 C 7.222656 -4.992188 6.59375 -4.625 5.75 -4.4375 L 8.40625 0 Z M 2.546875 -5.4375 L 4.59375 -5.4375 C 5.34375 -5.4375 5.90625 -5.617188 6.28125 -5.984375 C 6.65625 -6.359375 6.84375 -6.859375 6.84375 -7.484375 C 6.84375 -8.109375 6.65625 -8.59375 6.28125 -8.9375 C 5.914062 -9.28125 5.351562 -9.453125 4.59375 -9.453125 L 2.546875 -9.453125 Z M 2.546875 -5.4375 "/></g></g></g><g fill="#000000" fill-opacity="1"><g transform="translate(304.452468, 127.05735)"><g/></g></g><g fill="#000000" fill-opacity="1"><g transform="translate(310.865184, 127.05735)"><g><path d="M 9.328125 -10.59375 L 9.328125 0 L 7.953125 0 L 7.953125 -4.796875 L 2.546875 -4.796875 L 2.546875 0 L 1.171875 0 L 1.171875 -10.59375 L 2.546875 -10.59375 L 2.546875 -5.9375 L 7.953125 -5.9375 L 7.953125 -10.59375 Z M 9.328125 -10.59375 "/></g></g></g><g fill="#000000" fill-opacity="1"><g transform="translate(323.735313, 127.05735)"><g><path d="M 11.921875 -10.515625 L 11.921875 0 L 10.53125 0 L 10.53125 -7.84375 L 7.046875 0 L 6.0625 0 L 2.546875 -7.859375 L 2.546875 0 L 1.171875 0 L 1.171875 -10.515625 L 2.65625 -10.515625 L 6.546875 -1.828125 L 10.4375 -10.515625 Z M 11.921875 -10.515625 "/></g></g></g><g fill="#000000" fill-opacity="1"><g transform="translate(339.173194, 127.05735)"><g><path d="M 4.53125 0.109375 C 3.832031 0.109375 3.207031 -0.015625 2.65625 -0.265625 C 2.101562 -0.515625 1.664062 -0.859375 1.34375 -1.296875 C 1.03125 -1.742188 0.867188 -2.253906 0.859375 -2.828125 L 2.34375 -2.828125 C 2.394531 -2.328125 2.597656 -1.90625 2.953125 -1.5625 C 3.316406 -1.226562 3.84375 -1.0625 4.53125 -1.0625 C 5.1875 -1.0625 5.703125 -1.222656 6.078125 -1.546875 C 6.460938 -1.878906 6.65625 -2.304688 6.65625 -2.828125 C 6.65625 -3.234375 6.539062 -3.5625 6.3125 -3.8125 C 6.09375 -4.070312 5.816406 -4.265625 5.484375 -4.390625 C 5.148438 -4.523438 4.703125 -4.664062 4.140625 -4.8125 C 3.441406 -5 2.878906 -5.179688 2.453125 -5.359375 C 2.035156 -5.546875 1.675781 -5.832031 1.375 -6.21875 C 1.070312 -6.613281 0.921875 -7.140625 0.921875 -7.796875 C 0.921875 -8.378906 1.066406 -8.890625 1.359375 -9.328125 C 1.660156 -9.773438 2.078125 -10.117188 2.609375 -10.359375 C 3.140625 -10.609375 3.75 -10.734375 4.4375 -10.734375 C 5.425781 -10.734375 6.238281 -10.484375 6.875 -9.984375 C 7.507812 -9.492188 7.867188 -8.835938 7.953125 -8.015625 L 6.4375 -8.015625 C 6.382812 -8.421875 6.171875 -8.773438 5.796875 -9.078125 C 5.421875 -9.390625 4.921875 -9.546875 4.296875 -9.546875 C 3.722656 -9.546875 3.253906 -9.394531 2.890625 -9.09375 C 2.523438 -8.800781 2.34375 -8.382812 2.34375 -7.84375 C 2.34375 -7.457031 2.453125 -7.140625 2.671875 -6.890625 C 2.890625 -6.648438 3.15625 -6.46875 3.46875 -6.34375 C 3.789062 -6.21875 4.238281 -6.070312 4.8125 -5.90625 C 5.519531 -5.71875 6.082031 -5.53125 6.5 -5.34375 C 6.925781 -5.15625 7.289062 -4.863281 7.59375 -4.46875 C 7.90625 -4.082031 8.0625 -3.554688 8.0625 -2.890625 C 8.0625 -2.367188 7.921875 -1.878906 7.640625 -1.421875 C 7.367188 -0.972656 6.960938 -0.601562 6.421875 -0.3125 C 5.890625 -0.03125 5.257812 0.109375 4.53125 0.109375 Z M 4.53125 0.109375 "/></g></g></g><g fill="#000000" fill-opacity="1"><g transform="translate(350.447944, 127.05735)"><g><path d="M 1.609375 0.09375 C 1.347656 0.09375 1.125 0.00390625 0.9375 -0.171875 C 0.757812 -0.359375 0.671875 -0.582031 0.671875 -0.84375 C 0.671875 -1.113281 0.757812 -1.335938 0.9375 -1.515625 C 1.125 -1.703125 1.347656 -1.796875 1.609375 -1.796875 C 1.859375 -1.796875 2.070312 -1.703125 2.25 -1.515625 C 2.4375 -1.335938 2.53125 -1.113281 2.53125 -0.84375 C 2.53125 -0.582031 2.4375 -0.359375 2.25 -0.171875 C 2.070312 0.00390625 1.859375 0.09375 1.609375 0.09375 Z M 1.609375 0.09375 "/></g></g></g><g clip-path="url(#e0c881b819)"><path fill="#2c435f" d="M 83.828125 70.421875 C 85.542969 69.964844 87.144531 69.339844 88.292969 67.921875 C 86.800781 67.804688 85.195312 67.375 83.863281 66.695312 C 81.683594 65.59375 80.6875 64.222656 79.933594 61.957031 C 78.761719 62.785156 77.703125 63.773438 76.894531 64.964844 C 76.308594 65.828125 75.792969 66.90625 76.015625 67.972656 C 76.199219 68.847656 76.789062 69.75 77.539062 70.238281 C 79.167969 71.300781 82.039062 70.777344 83.828125 70.417969 Z M 89.285156 66.351562 C 86.96875 66.269531 84.203125 65.585938 82.574219 63.820312 C 81.769531 62.949219 81.21875 61.765625 81.261719 60.5625 C 81.335938 58.554688 82.980469 54.746094 84.480469 53.417969 C 84.980469 52.976562 85.589844 52.613281 86.277344 52.652344 C 86.308594 52.652344 86.34375 52.65625 86.375 52.660156 C 89.296875 53.652344 92.148438 56.847656 93.472656 59.558594 C 95.023438 62.742188 94.980469 66.132812 93.824219 69.4375 C 92.695312 72.652344 90.609375 75.507812 87.980469 77.660156 L 87.859375 77.660156 C 89.277344 74.25 90.070312 69.984375 89.285156 66.351562 Z M 29.199219 140.644531 C 27.503906 141.703125 25.714844 142.554688 23.96875 143.515625 C 25.636719 143.335938 27.234375 143.289062 28.882812 142.925781 C 37.320312 141.074219 44.996094 134.960938 49.921875 128.027344 C 50.796875 126.792969 51.625 125.542969 52.375 124.222656 C 52.839844 123.40625 53.234375 122.53125 53.746094 121.742188 L 53.785156 121.6875 C 53.566406 122.660156 53.207031 123.625 52.890625 124.574219 C 51.441406 128.914062 49.289062 133.015625 46.78125 136.839844 C 46.015625 138 45.183594 139.113281 44.394531 140.253906 C 53.097656 136.164062 59.351562 128.707031 63.417969 120.132812 C 64.09375 118.714844 64.714844 117.273438 65.277344 115.808594 C 65.621094 114.914062 65.898438 113.945312 66.320312 113.089844 C 66.332031 113.066406 66.339844 113.046875 66.351562 113.023438 C 65.363281 119.996094 62.894531 127.011719 58.769531 132.773438 C 57.800781 134.125 56.714844 135.363281 55.597656 136.597656 C 59.449219 135.019531 62.921875 132.535156 65.734375 129.472656 C 71.996094 122.65625 74.660156 114.265625 74.265625 105.101562 C 74.679688 106.367188 74.839844 107.84375 74.96875 109.167969 C 75.484375 114.476562 75.089844 120.207031 73.140625 125.214844 C 74.457031 123.964844 75.582031 122.597656 76.671875 121.152344 C 81.269531 115.046875 84.257812 107.582031 84.828125 99.941406 C 85.308594 93.457031 83.796875 85.78125 79.460938 80.746094 C 81.464844 81.570312 82.335938 82.300781 83.765625 83.910156 C 82.703125 80.714844 80.894531 77.691406 78.796875 75.070312 C 78.140625 74.25 77.417969 73.492188 76.734375 72.699219 C 75.445312 71.199219 74.480469 69.285156 74.644531 67.261719 C 74.902344 64.085938 77.480469 61.859375 79.742188 59.945312 L 79.789062 59.777344 C 80.433594 57.542969 81.945312 52.945312 84.058594 51.832031 C 85.1875 51.238281 86.214844 51.402344 87.367188 51.769531 C 87.058594 50.863281 86.652344 50.113281 86.023438 49.386719 C 82.953125 45.863281 78.242188 43.933594 73.644531 43.597656 C 72.328125 43.457031 70.882812 43.550781 69.578125 43.734375 C 60.136719 45.03125 54.273438 51.910156 49.984375 59.839844 C 47.828125 63.824219 46.074219 67.824219 43.300781 71.464844 C 45.542969 70.640625 47.507812 69.605469 49.28125 67.988281 C 48.390625 70.242188 46.511719 72.417969 44.558594 73.828125 C 43.386719 74.671875 42.140625 75.398438 41.011719 76.300781 C 39.476562 77.53125 38.105469 79.011719 36.960938 80.609375 C 32.953125 86.175781 31.324219 92.992188 31.207031 99.773438 C 31.175781 101.59375 31.207031 103.511719 31.5 105.3125 C 32.289062 100.53125 34.4375 95.019531 37.738281 91.398438 C 38.5625 90.496094 39.527344 89.761719 40.460938 88.976562 C 40.210938 90.394531 39.488281 91.511719 38.835938 92.765625 C 38.425781 93.546875 38.050781 94.351562 37.707031 95.164062 C 34.980469 101.605469 33.457031 109.671875 34 116.65625 C 34.871094 113.386719 36.714844 109.246094 38.585938 106.425781 C 39.699219 104.75 41.015625 103.257812 42.335938 101.742188 C 43.175781 100.78125 44 99.800781 44.890625 98.886719 C 43.433594 105.890625 41.140625 113.28125 36.601562 118.945312 C 35.390625 120.457031 34.039062 121.773438 32.578125 123.035156 C 34.300781 122.710938 36.027344 122.390625 37.726562 121.957031 C 47.105469 119.550781 54.652344 115.132812 61 107.765625 C 66.082031 101.867188 69.007812 94.265625 68.414062 86.4375 C 69.332031 86.882812 70.242188 87.339844 71.097656 87.894531 C 74.40625 90.042969 77.410156 93.378906 78.964844 97.019531 C 80.453125 100.507812 80.816406 104.570312 79.960938 108.265625 C 79.65625 109.59375 79.191406 110.84375 78.683594 112.105469 C 78.691406 111.085938 78.652344 110.054688 78.542969 109.046875 C 77.867188 102.613281 74.3125 95.960938 69.285156 91.898438 C 69.335938 93.449219 69.324219 95.007812 69.132812 96.550781 C 68.214844 103.933594 63.765625 111.875 57.894531 116.453125 C 55.738281 118.136719 53.171875 119.414062 50.710938 120.59375 C 44.773438 123.4375 39.082031 125.605469 32.449219 126.128906 C 30.9375 126.25 29.398438 126.339844 27.890625 126.152344 C 29.398438 126.652344 30.890625 127.152344 32.464844 127.40625 C 34.136719 127.675781 35.796875 127.636719 37.480469 127.527344 C 35.882812 131.152344 31.863281 135.164062 28.894531 137.730469 C 29.859375 137.273438 30.78125 136.675781 31.679688 136.101562 C 36.3125 133.167969 40.378906 129.425781 44.3125 125.628906 C 41.28125 131.410156 34.667969 137.222656 29.195312 140.640625 Z M 48.914062 104.347656 C 50.128906 102.097656 51.71875 99.539062 52.695312 97.222656 C 53.167969 96.109375 53.621094 94.757812 53.746094 93.546875 L 53.808594 93.46875 C 53.519531 102.140625 48.613281 110.042969 42.445312 115.851562 C 42.289062 116 42.132812 116.152344 41.960938 116.28125 C 44.757812 112.632812 46.734375 108.375 48.914062 104.347656 Z M 52.054688 75.503906 C 55.59375 75.597656 58.949219 76.707031 61.4375 79.332031 C 64.019531 82.0625 65.230469 85.546875 65.121094 89.273438 C 64.914062 96.1875 61.105469 103.3125 56.113281 107.976562 C 53.847656 110.09375 51.351562 111.554688 48.617188 112.972656 C 55.105469 107.628906 60.4375 99.464844 61.253906 90.960938 C 61.621094 87.15625 61.164062 83.132812 58.632812 80.09375 C 57.855469 79.164062 56.839844 78.246094 55.6875 77.824219 C 57.925781 80.25 58.433594 84.039062 58.316406 87.21875 C 58.234375 89.492188 57.558594 93.308594 56.523438 95.320312 C 57.746094 89.996094 57.019531 83.519531 54.078125 78.824219 C 53.789062 78.363281 53.46875 77.945312 53.109375 77.535156 C 53.425781 78.320312 53.714844 79.097656 53.898438 79.925781 C 54.726562 83.714844 53.972656 87.96875 52.460938 91.503906 C 52.042969 92.472656 51.5625 93.402344 51.066406 94.332031 C 50.011719 96.183594 48.625 98.308594 47.183594 99.867188 C 49.820312 94.863281 51.703125 87.792969 51.601562 82.121094 C 51.574219 80.742188 51.363281 79.414062 51.140625 78.058594 C 51.023438 79.738281 50.894531 81.339844 50.464844 82.972656 C 49.054688 88.386719 44.71875 94.859375 40.507812 98.519531 C 39.957031 98.996094 39.398438 99.46875 38.824219 99.914062 C 39.589844 98.921875 40.230469 97.828125 40.894531 96.765625 C 43.617188 92.425781 48.15625 84.429688 48.839844 79.492188 C 47.03125 83.015625 45.5625 84.746094 42.839844 87.605469 C 42.320312 88.152344 41.832031 88.746094 41.300781 89.28125 C 43.25 85.421875 45.070312 81.199219 47.933594 77.917969 C 44.074219 79.96875 39.710938 85.625 36.316406 88.742188 C 38.285156 83.546875 41.597656 78.914062 46.808594 76.585938 C 48.503906 75.832031 50.207031 75.527344 52.054688 75.511719 Z M 81.628906 96.90625 C 80.25 91.4375 76.414062 87.421875 71.683594 84.589844 C 70.332031 83.78125 68.929688 83.207031 67.445312 82.699219 C 66.035156 78.960938 62.804688 75.996094 59.207031 74.367188 C 58 73.820312 56.78125 73.46875 55.496094 73.175781 C 56.351562 70.667969 56.578125 68.515625 56.875 65.925781 C 55.574219 68.308594 53.992188 70.515625 52.191406 72.542969 C 54.242188 63.683594 57.367188 57.023438 65.242188 51.976562 C 61.65625 52.765625 58.632812 54.90625 56.070312 57.460938 C 58.171875 53.210938 61.953125 49.433594 66.488281 47.910156 C 68.191406 47.335938 71.054688 46.789062 72.851562 47.089844 C 76.351562 47.460938 79.347656 48.871094 81.808594 51.40625 C 79.929688 54.03125 79.238281 56.40625 78.078125 59.328125 C 77.34375 59.796875 76.570312 60.199219 75.835938 60.671875 C 73.808594 61.988281 71.6875 63.808594 70.667969 66.050781 C 70.367188 66.71875 70.1875 67.410156 70.007812 68.117188 C 67.601562 67.125 65.953125 65.601562 64.933594 63.179688 C 63.980469 60.90625 63.976562 58.640625 64.109375 56.230469 C 62.789062 59.359375 62.242188 62.925781 63.5625 66.160156 C 64.320312 68.023438 65.742188 69.71875 67.476562 70.753906 C 68.425781 71.316406 69.441406 71.765625 70.398438 72.320312 C 72.910156 73.777344 75.257812 75.652344 76.695312 78.214844 C 73.957031 76.117188 70.886719 74.460938 67.628906 73.320312 C 68.121094 73.8125 68.710938 74.234375 69.253906 74.675781 C 69.914062 75.210938 70.550781 75.769531 71.175781 76.34375 C 66.582031 75.324219 63.789062 73.617188 61.203125 69.582031 C 60.285156 68.148438 59.5 66.585938 58.863281 65.007812 C 59.007812 66.210938 59.128906 67.417969 59.394531 68.605469 C 60.0625 71.5625 61.636719 74.53125 64.039062 76.433594 C 66.785156 78.609375 70.195312 78.96875 73.3125 80.320312 C 76.761719 81.941406 79.003906 84.289062 80.296875 87.898438 C 81.324219 90.773438 81.65625 93.867188 81.621094 96.90625 Z M 69.234375 51.492188 C 69.097656 52.753906 69.234375 53.917969 69.902344 55.019531 C 70.5625 56.097656 71.621094 56.890625 72.855469 57.175781 C 74.066406 57.457031 75.472656 57.28125 76.53125 56.601562 C 77.34375 56.078125 77.914062 55.238281 78.117188 54.292969 C 78.3125 53.367188 78.09375 52.4375 77.5625 51.664062 C 76.964844 50.785156 76.136719 50.300781 75.101562 50.089844 C 74.386719 50.027344 73.707031 50.054688 73.132812 50.542969 C 72.671875 50.929688 72.421875 51.515625 72.375 52.109375 C 72.316406 52.765625 72.523438 53.4375 72.960938 53.929688 C 73.316406 54.332031 73.800781 54.582031 74.34375 54.589844 C 74.894531 54.597656 75.503906 54.351562 75.886719 53.953125 C 76.449219 53.363281 76.445312 52.582031 76.445312 51.828125 C 76.660156 52.453125 76.835938 53.050781 76.730469 53.722656 C 76.625 54.375 76.292969 54.957031 75.742188 55.328125 C 75.019531 55.816406 74.058594 55.917969 73.21875 55.746094 C 71.777344 55.445312 70.828125 54.449219 70.050781 53.257812 C 69.738281 52.683594 69.484375 52.105469 69.238281 51.5 Z M 74.617188 51.78125 C 74.441406 51.976562 74.222656 52.054688 73.96875 52.0625 C 73.882812 52.0625 73.851562 52.058594 73.773438 52.050781 C 73.578125 51.882812 73.34375 51.675781 73.320312 51.398438 C 73.304688 51.214844 73.34375 51.0625 73.480469 50.925781 C 73.707031 50.699219 74.003906 50.6875 74.304688 50.6875 C 74.539062 50.847656 74.738281 50.972656 74.773438 51.28125 C 74.796875 51.464844 74.738281 51.644531 74.617188 51.78125 Z M 74.617188 51.78125 " fill-opacity="1" fill-rule="nonzero"/></g></svg>