<svg xmlns="http://www.w3.org/2000/svg" xmlns:xlink="http://www.w3.org/1999/xlink" width="200" zoomAndPan="magnify" viewBox="0 0 150 37.5" height="50" preserveAspectRatio="xMidYMid meet" version="1.0"><defs><g/><clipPath id="b6720ed3d4"><path d="M 14.585938 1 L 39.449219 1 L 39.449219 35.773438 L 14.585938 35.773438 Z M 14.585938 1 " clip-rule="nonzero"/></clipPath></defs><g fill="#000000" fill-opacity="1"><g transform="translate(42.164313, 21.197718)"><g><path d="M 11.21875 -11.765625 L 11.21875 0 L 8.359375 0 L 8.359375 -4.84375 L 3.90625 -4.84375 L 3.90625 0 L 1.03125 0 L 1.03125 -11.765625 L 3.90625 -11.765625 L 3.90625 -7.15625 L 8.359375 -7.15625 L 8.359375 -11.765625 Z M 11.21875 -11.765625 "/></g></g></g><g fill="#000000" fill-opacity="1"><g transform="translate(54.407257, 21.197718)"><g><path d="M 14.359375 -11.765625 L 14.359375 0 L 11.484375 0 L 11.484375 -7.046875 L 8.859375 0 L 6.546875 0 L 3.90625 -7.0625 L 3.90625 0 L 1.03125 0 L 1.03125 -11.765625 L 4.421875 -11.765625 L 7.71875 -3.625 L 10.984375 -11.765625 Z M 14.359375 -11.765625 "/></g></g></g><g fill="#000000" fill-opacity="1"><g transform="translate(69.782117, 21.197718)"><g><path d="M 5.296875 0.125 C 4.429688 0.125 3.65625 -0.015625 2.96875 -0.296875 C 2.289062 -0.578125 1.75 -0.988281 1.34375 -1.53125 C 0.9375 -2.082031 0.722656 -2.742188 0.703125 -3.515625 L 3.75 -3.515625 C 3.789062 -3.078125 3.941406 -2.742188 4.203125 -2.515625 C 4.460938 -2.285156 4.796875 -2.171875 5.203125 -2.171875 C 5.628906 -2.171875 5.960938 -2.269531 6.203125 -2.46875 C 6.453125 -2.664062 6.578125 -2.9375 6.578125 -3.28125 C 6.578125 -3.570312 6.476562 -3.8125 6.28125 -4 C 6.09375 -4.1875 5.851562 -4.34375 5.5625 -4.46875 C 5.28125 -4.59375 4.878906 -4.734375 4.359375 -4.890625 C 3.597656 -5.128906 2.976562 -5.363281 2.5 -5.59375 C 2.019531 -5.832031 1.601562 -6.175781 1.25 -6.625 C 0.90625 -7.082031 0.734375 -7.679688 0.734375 -8.421875 C 0.734375 -9.515625 1.128906 -10.367188 1.921875 -10.984375 C 2.710938 -11.609375 3.75 -11.921875 5.03125 -11.921875 C 6.320312 -11.921875 7.363281 -11.609375 8.15625 -10.984375 C 8.945312 -10.367188 9.375 -9.507812 9.4375 -8.40625 L 6.328125 -8.40625 C 6.304688 -8.789062 6.164062 -9.085938 5.90625 -9.296875 C 5.65625 -9.515625 5.328125 -9.625 4.921875 -9.625 C 4.578125 -9.625 4.296875 -9.53125 4.078125 -9.34375 C 3.867188 -9.164062 3.765625 -8.90625 3.765625 -8.5625 C 3.765625 -8.175781 3.941406 -7.878906 4.296875 -7.671875 C 4.660156 -7.460938 5.222656 -7.234375 5.984375 -6.984375 C 6.742188 -6.722656 7.359375 -6.472656 7.828125 -6.234375 C 8.304688 -6.003906 8.71875 -5.664062 9.0625 -5.21875 C 9.40625 -4.78125 9.578125 -4.207031 9.578125 -3.5 C 9.578125 -2.832031 9.40625 -2.222656 9.0625 -1.671875 C 8.726562 -1.128906 8.234375 -0.691406 7.578125 -0.359375 C 6.929688 -0.0351562 6.171875 0.125 5.296875 0.125 Z M 5.296875 0.125 "/></g></g></g><g fill="#2c435f" fill-opacity="1"><g transform="translate(80.083071, 21.197718)"><g><path d="M 11.5625 0 L 8.6875 0 L 3.90625 -7.25 L 3.90625 0 L 1.03125 0 L 1.03125 -11.765625 L 3.90625 -11.765625 L 8.6875 -4.46875 L 8.6875 -11.765625 L 11.5625 -11.765625 Z M 11.5625 0 "/></g></g></g><g fill="#2c435f" fill-opacity="1"><g transform="translate(92.677726, 21.197718)"><g><path d="M 6.59375 0.125 C 5.488281 0.125 4.472656 -0.128906 3.546875 -0.640625 C 2.628906 -1.160156 1.898438 -1.878906 1.359375 -2.796875 C 0.816406 -3.722656 0.546875 -4.757812 0.546875 -5.90625 C 0.546875 -7.0625 0.816406 -8.097656 1.359375 -9.015625 C 1.898438 -9.929688 2.628906 -10.644531 3.546875 -11.15625 C 4.472656 -11.664062 5.488281 -11.921875 6.59375 -11.921875 C 7.695312 -11.921875 8.707031 -11.664062 9.625 -11.15625 C 10.550781 -10.644531 11.28125 -9.929688 11.8125 -9.015625 C 12.34375 -8.097656 12.609375 -7.0625 12.609375 -5.90625 C 12.609375 -4.757812 12.335938 -3.722656 11.796875 -2.796875 C 11.265625 -1.878906 10.539062 -1.160156 9.625 -0.640625 C 8.707031 -0.128906 7.695312 0.125 6.59375 0.125 Z M 6.59375 -2.5 C 7.53125 -2.5 8.28125 -2.8125 8.84375 -3.4375 C 9.414062 -4.0625 9.703125 -4.882812 9.703125 -5.90625 C 9.703125 -6.945312 9.414062 -7.773438 8.84375 -8.390625 C 8.28125 -9.015625 7.53125 -9.328125 6.59375 -9.328125 C 5.644531 -9.328125 4.890625 -9.019531 4.328125 -8.40625 C 3.765625 -7.789062 3.484375 -6.957031 3.484375 -5.90625 C 3.484375 -4.875 3.765625 -4.046875 4.328125 -3.421875 C 4.890625 -2.804688 5.644531 -2.5 6.59375 -2.5 Z M 6.59375 -2.5 "/></g></g></g><g fill="#2c435f" fill-opacity="1"><g transform="translate(105.841822, 21.197718)"><g><path d="M 12.078125 -11.765625 L 7.90625 0 L 4.328125 0 L 0.15625 -11.765625 L 3.203125 -11.765625 L 6.109375 -2.875 L 9.046875 -11.765625 Z M 12.078125 -11.765625 "/></g></g></g><g fill="#2c435f" fill-opacity="1"><g transform="translate(118.068019, 21.197718)"><g><path d="M 8.359375 -2.078125 L 3.96875 -2.078125 L 3.265625 0 L 0.265625 0 L 4.515625 -11.765625 L 7.84375 -11.765625 L 12.09375 0 L 9.0625 0 Z M 7.625 -4.28125 L 6.15625 -8.59375 L 4.71875 -4.28125 Z M 7.625 -4.28125 "/></g></g></g><g fill="#000000" fill-opacity="1"><g transform="translate(42.594508, 30.248903)"><g><path d="M 0.890625 -3.3125 L 0.890625 -2.078125 L 2.234375 -2.078125 L 2.234375 -1.671875 L 0.890625 -1.671875 L 0.890625 -0.390625 L 2.40625 -0.390625 L 2.40625 0 L 0.40625 0 L 0.40625 -3.703125 L 2.40625 -3.703125 L 2.40625 -3.3125 Z M 0.890625 -3.3125 "/></g></g></g><g fill="#000000" fill-opacity="1"><g transform="translate(46.147383, 30.248903)"><g><path d="M 3.3125 0 L 2.84375 0 L 0.890625 -2.953125 L 0.890625 0 L 0.40625 0 L 0.40625 -3.703125 L 0.890625 -3.703125 L 2.84375 -0.765625 L 2.84375 -3.703125 L 3.3125 -3.703125 Z M 3.3125 0 "/></g></g></g><g fill="#000000" fill-opacity="1"><g transform="translate(50.71072, 30.248903)"><g/></g></g><g fill="#000000" fill-opacity="1"><g transform="translate(52.955315, 30.248903)"><g><path d="M 3.3125 0 L 2.84375 0 L 0.890625 -2.953125 L 0.890625 0 L 0.40625 0 L 0.40625 -3.703125 L 0.890625 -3.703125 L 2.84375 -0.765625 L 2.84375 -3.703125 L 3.3125 -3.703125 Z M 3.3125 0 "/></g></g></g><g fill="#000000" fill-opacity="1"><g transform="translate(57.518652, 30.248903)"><g><path d="M 3 -3.703125 L 1.796875 -1.390625 L 1.796875 0 L 1.3125 0 L 1.3125 -1.390625 L 0.09375 -3.703125 L 0.640625 -3.703125 L 1.546875 -1.828125 L 2.46875 -3.703125 Z M 3 -3.703125 "/></g></g></g><g fill="#000000" fill-opacity="1"><g transform="translate(61.449122, 30.248903)"><g/></g></g><g fill="#000000" fill-opacity="1"><g transform="translate(63.693715, 30.248903)"><g><path d="M 1.578125 0.03125 C 1.335938 0.03125 1.117188 -0.0078125 0.921875 -0.09375 C 0.734375 -0.175781 0.582031 -0.296875 0.46875 -0.453125 C 0.363281 -0.609375 0.304688 -0.785156 0.296875 -0.984375 L 0.8125 -0.984375 C 0.832031 -0.816406 0.90625 -0.671875 1.03125 -0.546875 C 1.15625 -0.429688 1.335938 -0.375 1.578125 -0.375 C 1.804688 -0.375 1.988281 -0.429688 2.125 -0.546875 C 2.257812 -0.660156 2.328125 -0.804688 2.328125 -0.984375 C 2.328125 -1.128906 2.285156 -1.242188 2.203125 -1.328125 C 2.128906 -1.421875 2.035156 -1.488281 1.921875 -1.53125 C 1.804688 -1.582031 1.644531 -1.632812 1.4375 -1.6875 C 1.195312 -1.75 1.003906 -1.8125 0.859375 -1.875 C 0.710938 -1.9375 0.585938 -2.035156 0.484375 -2.171875 C 0.378906 -2.304688 0.328125 -2.488281 0.328125 -2.71875 C 0.328125 -2.925781 0.375 -3.109375 0.46875 -3.265625 C 0.570312 -3.421875 0.71875 -3.539062 0.90625 -3.625 C 1.09375 -3.707031 1.304688 -3.75 1.546875 -3.75 C 1.898438 -3.75 2.1875 -3.660156 2.40625 -3.484375 C 2.625 -3.316406 2.75 -3.085938 2.78125 -2.796875 L 2.25 -2.796875 C 2.226562 -2.941406 2.148438 -3.066406 2.015625 -3.171875 C 1.890625 -3.285156 1.71875 -3.34375 1.5 -3.34375 C 1.300781 -3.34375 1.132812 -3.285156 1 -3.171875 C 0.875 -3.066406 0.8125 -2.921875 0.8125 -2.734375 C 0.8125 -2.609375 0.847656 -2.5 0.921875 -2.40625 C 1.003906 -2.320312 1.097656 -2.257812 1.203125 -2.21875 C 1.316406 -2.175781 1.476562 -2.125 1.6875 -2.0625 C 1.925781 -2 2.117188 -1.929688 2.265625 -1.859375 C 2.421875 -1.796875 2.550781 -1.695312 2.65625 -1.5625 C 2.757812 -1.425781 2.8125 -1.242188 2.8125 -1.015625 C 2.8125 -0.828125 2.765625 -0.65625 2.671875 -0.5 C 2.578125 -0.34375 2.4375 -0.210938 2.25 -0.109375 C 2.0625 -0.015625 1.835938 0.03125 1.578125 0.03125 Z M 1.578125 0.03125 "/></g></g></g><g fill="#000000" fill-opacity="1"><g transform="translate(67.640137, 30.248903)"><g><path d="M 2.6875 -3.703125 L 2.6875 -3.3125 L 1.671875 -3.3125 L 1.671875 0 L 1.1875 0 L 1.1875 -3.3125 L 0.1875 -3.3125 L 0.1875 -3.703125 Z M 2.6875 -3.703125 "/></g></g></g><g fill="#000000" fill-opacity="1"><g transform="translate(71.341922, 30.248903)"><g><path d="M 2.59375 -0.828125 L 0.984375 -0.828125 L 0.6875 0 L 0.171875 0 L 1.515625 -3.6875 L 2.078125 -3.6875 L 3.40625 0 L 2.890625 0 Z M 2.453125 -1.21875 L 1.796875 -3.09375 L 1.125 -1.21875 Z M 2.453125 -1.21875 "/></g></g></g><g fill="#000000" fill-opacity="1"><g transform="translate(75.751029, 30.248903)"><g><path d="M 3.3125 0 L 2.84375 0 L 0.890625 -2.953125 L 0.890625 0 L 0.40625 0 L 0.40625 -3.703125 L 0.890625 -3.703125 L 2.84375 -0.765625 L 2.84375 -3.703125 L 3.3125 -3.703125 Z M 3.3125 0 "/></g></g></g><g fill="#000000" fill-opacity="1"><g transform="translate(80.314365, 30.248903)"><g><path d="M 1.5625 -3.703125 C 1.96875 -3.703125 2.316406 -3.625 2.609375 -3.46875 C 2.898438 -3.320312 3.125 -3.109375 3.28125 -2.828125 C 3.445312 -2.546875 3.53125 -2.21875 3.53125 -1.84375 C 3.53125 -1.46875 3.445312 -1.140625 3.28125 -0.859375 C 3.125 -0.578125 2.898438 -0.363281 2.609375 -0.21875 C 2.316406 -0.0703125 1.96875 0 1.5625 0 L 0.40625 0 L 0.40625 -3.703125 Z M 1.5625 -0.390625 C 2.039062 -0.390625 2.40625 -0.515625 2.65625 -0.765625 C 2.90625 -1.023438 3.03125 -1.382812 3.03125 -1.84375 C 3.03125 -2.300781 2.90625 -2.660156 2.65625 -2.921875 C 2.40625 -3.179688 2.039062 -3.3125 1.5625 -3.3125 L 0.890625 -3.3125 L 0.890625 -0.390625 Z M 1.5625 -0.390625 "/></g></g></g><g fill="#000000" fill-opacity="1"><g transform="translate(84.898975, 30.248903)"><g><path d="M 2.59375 -0.828125 L 0.984375 -0.828125 L 0.6875 0 L 0.171875 0 L 1.515625 -3.6875 L 2.078125 -3.6875 L 3.40625 0 L 2.890625 0 Z M 2.453125 -1.21875 L 1.796875 -3.09375 L 1.125 -1.21875 Z M 2.453125 -1.21875 "/></g></g></g><g fill="#000000" fill-opacity="1"><g transform="translate(89.308082, 30.248903)"><g><path d="M 2.359375 0 L 1.484375 -1.515625 L 0.890625 -1.515625 L 0.890625 0 L 0.40625 0 L 0.40625 -3.703125 L 1.609375 -3.703125 C 1.890625 -3.703125 2.125 -3.65625 2.3125 -3.5625 C 2.507812 -3.46875 2.65625 -3.335938 2.75 -3.171875 C 2.84375 -3.003906 2.890625 -2.816406 2.890625 -2.609375 C 2.890625 -2.359375 2.816406 -2.132812 2.671875 -1.9375 C 2.523438 -1.738281 2.304688 -1.609375 2.015625 -1.546875 L 2.9375 0 Z M 0.890625 -1.90625 L 1.609375 -1.90625 C 1.867188 -1.90625 2.0625 -1.96875 2.1875 -2.09375 C 2.320312 -2.226562 2.390625 -2.398438 2.390625 -2.609375 C 2.390625 -2.828125 2.320312 -2.992188 2.1875 -3.109375 C 2.0625 -3.234375 1.867188 -3.296875 1.609375 -3.296875 L 0.890625 -3.296875 Z M 0.890625 -1.90625 "/></g></g></g><g fill="#000000" fill-opacity="1"><g transform="translate(93.366189, 30.248903)"><g><path d="M 1.5625 -3.703125 C 1.96875 -3.703125 2.316406 -3.625 2.609375 -3.46875 C 2.898438 -3.320312 3.125 -3.109375 3.28125 -2.828125 C 3.445312 -2.546875 3.53125 -2.21875 3.53125 -1.84375 C 3.53125 -1.46875 3.445312 -1.140625 3.28125 -0.859375 C 3.125 -0.578125 2.898438 -0.363281 2.609375 -0.21875 C 2.316406 -0.0703125 1.96875 0 1.5625 0 L 0.40625 0 L 0.40625 -3.703125 Z M 1.5625 -0.390625 C 2.039062 -0.390625 2.40625 -0.515625 2.65625 -0.765625 C 2.90625 -1.023438 3.03125 -1.382812 3.03125 -1.84375 C 3.03125 -2.300781 2.90625 -2.660156 2.65625 -2.921875 C 2.40625 -3.179688 2.039062 -3.3125 1.5625 -3.3125 L 0.890625 -3.3125 L 0.890625 -0.390625 Z M 1.5625 -0.390625 "/></g></g></g><g fill="#000000" fill-opacity="1"><g transform="translate(97.950799, 30.248903)"><g/></g></g><g fill="#000000" fill-opacity="1"><g transform="translate(100.195392, 30.248903)"><g><path d="M 2.5 -3.703125 L 2.5 -3.3125 L 0.890625 -3.3125 L 0.890625 -2.0625 L 2.203125 -2.0625 L 2.203125 -1.671875 L 0.890625 -1.671875 L 0.890625 0 L 0.40625 0 L 0.40625 -3.703125 Z M 2.5 -3.703125 "/></g></g></g><g fill="#000000" fill-opacity="1"><g transform="translate(103.700402, 30.248903)"><g><path d="M 2.09375 0.03125 C 1.75 0.03125 1.429688 -0.046875 1.140625 -0.203125 C 0.859375 -0.367188 0.632812 -0.59375 0.46875 -0.875 C 0.3125 -1.164062 0.234375 -1.492188 0.234375 -1.859375 C 0.234375 -2.210938 0.3125 -2.535156 0.46875 -2.828125 C 0.632812 -3.117188 0.859375 -3.34375 1.140625 -3.5 C 1.429688 -3.664062 1.75 -3.75 2.09375 -3.75 C 2.4375 -3.75 2.75 -3.664062 3.03125 -3.5 C 3.3125 -3.34375 3.535156 -3.117188 3.703125 -2.828125 C 3.867188 -2.546875 3.953125 -2.222656 3.953125 -1.859375 C 3.953125 -1.492188 3.867188 -1.164062 3.703125 -0.875 C 3.535156 -0.59375 3.3125 -0.367188 3.03125 -0.203125 C 2.75 -0.046875 2.4375 0.03125 2.09375 0.03125 Z M 2.09375 -0.375 C 2.34375 -0.375 2.570312 -0.4375 2.78125 -0.5625 C 2.988281 -0.6875 3.148438 -0.859375 3.265625 -1.078125 C 3.390625 -1.296875 3.453125 -1.554688 3.453125 -1.859375 C 3.453125 -2.148438 3.390625 -2.40625 3.265625 -2.625 C 3.148438 -2.851562 2.988281 -3.023438 2.78125 -3.140625 C 2.582031 -3.265625 2.351562 -3.328125 2.09375 -3.328125 C 1.820312 -3.328125 1.582031 -3.265625 1.375 -3.140625 C 1.175781 -3.023438 1.015625 -2.851562 0.890625 -2.625 C 0.773438 -2.40625 0.71875 -2.148438 0.71875 -1.859375 C 0.71875 -1.554688 0.773438 -1.296875 0.890625 -1.078125 C 1.015625 -0.859375 1.179688 -0.6875 1.390625 -0.5625 C 1.597656 -0.4375 1.832031 -0.375 2.09375 -0.375 Z M 2.09375 -0.375 "/></g></g></g><g fill="#000000" fill-opacity="1"><g transform="translate(108.70515, 30.248903)"><g><path d="M 2.359375 0 L 1.484375 -1.515625 L 0.890625 -1.515625 L 0.890625 0 L 0.40625 0 L 0.40625 -3.703125 L 1.609375 -3.703125 C 1.890625 -3.703125 2.125 -3.65625 2.3125 -3.5625 C 2.507812 -3.46875 2.65625 -3.335938 2.75 -3.171875 C 2.84375 -3.003906 2.890625 -2.816406 2.890625 -2.609375 C 2.890625 -2.359375 2.816406 -2.132812 2.671875 -1.9375 C 2.523438 -1.738281 2.304688 -1.609375 2.015625 -1.546875 L 2.9375 0 Z M 0.890625 -1.90625 L 1.609375 -1.90625 C 1.867188 -1.90625 2.0625 -1.96875 2.1875 -2.09375 C 2.320312 -2.226562 2.390625 -2.398438 2.390625 -2.609375 C 2.390625 -2.828125 2.320312 -2.992188 2.1875 -3.109375 C 2.0625 -3.234375 1.867188 -3.296875 1.609375 -3.296875 L 0.890625 -3.296875 Z M 0.890625 -1.90625 "/></g></g></g><g fill="#000000" fill-opacity="1"><g transform="translate(112.763261, 30.248903)"><g/></g></g><g fill="#000000" fill-opacity="1"><g transform="translate(115.007859, 30.248903)"><g><path d="M 3.265625 -3.703125 L 3.265625 0 L 2.78125 0 L 2.78125 -1.671875 L 0.890625 -1.671875 L 0.890625 0 L 0.40625 0 L 0.40625 -3.703125 L 0.890625 -3.703125 L 0.890625 -2.078125 L 2.78125 -2.078125 L 2.78125 -3.703125 Z M 3.265625 -3.703125 "/></g></g></g><g fill="#000000" fill-opacity="1"><g transform="translate(119.512699, 30.248903)"><g><path d="M 4.171875 -3.671875 L 4.171875 0 L 3.6875 0 L 3.6875 -2.734375 L 2.453125 0 L 2.125 0 L 0.890625 -2.75 L 0.890625 0 L 0.40625 0 L 0.40625 -3.671875 L 0.921875 -3.671875 L 2.296875 -0.640625 L 3.65625 -3.671875 Z M 4.171875 -3.671875 "/></g></g></g><g fill="#000000" fill-opacity="1"><g transform="translate(124.916312, 30.248903)"><g><path d="M 1.578125 0.03125 C 1.335938 0.03125 1.117188 -0.0078125 0.921875 -0.09375 C 0.734375 -0.175781 0.582031 -0.296875 0.46875 -0.453125 C 0.363281 -0.609375 0.304688 -0.785156 0.296875 -0.984375 L 0.8125 -0.984375 C 0.832031 -0.816406 0.90625 -0.671875 1.03125 -0.546875 C 1.15625 -0.429688 1.335938 -0.375 1.578125 -0.375 C 1.804688 -0.375 1.988281 -0.429688 2.125 -0.546875 C 2.257812 -0.660156 2.328125 -0.804688 2.328125 -0.984375 C 2.328125 -1.128906 2.285156 -1.242188 2.203125 -1.328125 C 2.128906 -1.421875 2.035156 -1.488281 1.921875 -1.53125 C 1.804688 -1.582031 1.644531 -1.632812 1.4375 -1.6875 C 1.195312 -1.75 1.003906 -1.8125 0.859375 -1.875 C 0.710938 -1.9375 0.585938 -2.035156 0.484375 -2.171875 C 0.378906 -2.304688 0.328125 -2.488281 0.328125 -2.71875 C 0.328125 -2.925781 0.375 -3.109375 0.46875 -3.265625 C 0.570312 -3.421875 0.71875 -3.539062 0.90625 -3.625 C 1.09375 -3.707031 1.304688 -3.75 1.546875 -3.75 C 1.898438 -3.75 2.1875 -3.660156 2.40625 -3.484375 C 2.625 -3.316406 2.75 -3.085938 2.78125 -2.796875 L 2.25 -2.796875 C 2.226562 -2.941406 2.148438 -3.066406 2.015625 -3.171875 C 1.890625 -3.285156 1.71875 -3.34375 1.5 -3.34375 C 1.300781 -3.34375 1.132812 -3.285156 1 -3.171875 C 0.875 -3.066406 0.8125 -2.921875 0.8125 -2.734375 C 0.8125 -2.609375 0.847656 -2.5 0.921875 -2.40625 C 1.003906 -2.320312 1.097656 -2.257812 1.203125 -2.21875 C 1.316406 -2.175781 1.476562 -2.125 1.6875 -2.0625 C 1.925781 -2 2.117188 -1.929688 2.265625 -1.859375 C 2.421875 -1.796875 2.550781 -1.695312 2.65625 -1.5625 C 2.757812 -1.425781 2.8125 -1.242188 2.8125 -1.015625 C 2.8125 -0.828125 2.765625 -0.65625 2.671875 -0.5 C 2.578125 -0.34375 2.4375 -0.210938 2.25 -0.109375 C 2.0625 -0.015625 1.835938 0.03125 1.578125 0.03125 Z M 1.578125 0.03125 "/></g></g></g><g fill="#000000" fill-opacity="1"><g transform="translate(128.862734, 30.248903)"><g><path d="M 0.5625 0.03125 C 0.46875 0.03125 0.390625 0 0.328125 -0.0625 C 0.265625 -0.125 0.234375 -0.203125 0.234375 -0.296875 C 0.234375 -0.390625 0.265625 -0.46875 0.328125 -0.53125 C 0.390625 -0.59375 0.46875 -0.625 0.5625 -0.625 C 0.65625 -0.625 0.726562 -0.59375 0.78125 -0.53125 C 0.84375 -0.46875 0.875 -0.390625 0.875 -0.296875 C 0.875 -0.203125 0.84375 -0.125 0.78125 -0.0625 C 0.726562 0 0.65625 0.03125 0.5625 0.03125 Z M 0.5625 0.03125 "/></g></g></g><g clip-path="url(#b6720ed3d4)"><path fill="#2c435f" d="M 35.53125 10.429688 C 36.132812 10.269531 36.691406 10.046875 37.09375 9.554688 C 36.570312 9.511719 36.011719 9.359375 35.542969 9.125 C 34.78125 8.738281 34.433594 8.257812 34.171875 7.464844 C 33.757812 7.753906 33.390625 8.101562 33.105469 8.519531 C 32.902344 8.820312 32.722656 9.199219 32.800781 9.570312 C 32.863281 9.878906 33.070312 10.191406 33.332031 10.363281 C 33.902344 10.734375 34.90625 10.550781 35.53125 10.425781 Z M 37.441406 9.003906 C 36.632812 8.976562 35.664062 8.734375 35.09375 8.117188 C 34.8125 7.8125 34.617188 7.398438 34.632812 6.976562 C 34.660156 6.273438 35.234375 4.941406 35.761719 4.476562 C 35.933594 4.324219 36.148438 4.195312 36.386719 4.210938 C 36.398438 4.210938 36.410156 4.210938 36.421875 4.210938 C 37.445312 4.558594 38.441406 5.675781 38.90625 6.625 C 39.449219 7.738281 39.433594 8.925781 39.03125 10.082031 C 38.632812 11.207031 37.90625 12.207031 36.984375 12.960938 L 36.941406 12.960938 C 37.4375 11.765625 37.714844 10.273438 37.441406 9.003906 Z M 16.417969 34.996094 C 15.824219 35.367188 15.199219 35.667969 14.585938 36.003906 C 15.171875 35.941406 15.730469 35.921875 16.308594 35.796875 C 19.257812 35.148438 21.945312 33.007812 23.667969 30.582031 C 23.976562 30.152344 24.265625 29.714844 24.527344 29.253906 C 24.6875 28.964844 24.828125 28.660156 25.007812 28.382812 L 25.019531 28.363281 C 24.941406 28.707031 24.816406 29.042969 24.707031 29.375 C 24.199219 30.894531 23.445312 32.328125 22.570312 33.667969 C 22.300781 34.074219 22.011719 34.460938 21.734375 34.863281 C 24.777344 33.429688 26.96875 30.820312 28.390625 27.820312 C 28.625 27.324219 28.84375 26.820312 29.042969 26.308594 C 29.160156 25.996094 29.257812 25.65625 29.40625 25.355469 C 29.410156 25.347656 29.414062 25.339844 29.417969 25.332031 C 29.070312 27.773438 28.207031 30.226562 26.765625 32.242188 C 26.425781 32.71875 26.046875 33.152344 25.65625 33.582031 C 27 33.03125 28.21875 32.160156 29.199219 31.089844 C 31.390625 28.703125 32.324219 25.769531 32.1875 22.5625 C 32.332031 23.003906 32.386719 23.519531 32.433594 23.984375 C 32.613281 25.839844 32.472656 27.847656 31.792969 29.597656 C 32.253906 29.160156 32.648438 28.683594 33.027344 28.175781 C 34.636719 26.042969 35.683594 23.429688 35.882812 20.757812 C 36.050781 18.488281 35.519531 15.800781 34.003906 14.039062 C 34.703125 14.328125 35.011719 14.585938 35.511719 15.148438 C 35.136719 14.027344 34.503906 12.972656 33.773438 12.054688 C 33.542969 11.765625 33.289062 11.5 33.050781 11.222656 C 32.597656 10.699219 32.261719 10.03125 32.320312 9.320312 C 32.410156 8.210938 33.3125 7.429688 34.101562 6.761719 L 34.121094 6.703125 C 34.34375 5.921875 34.875 4.3125 35.613281 3.921875 C 36.007812 3.714844 36.367188 3.773438 36.769531 3.902344 C 36.660156 3.585938 36.519531 3.320312 36.300781 3.066406 C 35.226562 1.835938 33.578125 1.160156 31.96875 1.042969 C 31.507812 0.992188 31.003906 1.027344 30.546875 1.089844 C 27.242188 1.542969 25.191406 3.949219 23.691406 6.722656 C 22.933594 8.121094 22.324219 9.519531 21.351562 10.792969 C 22.136719 10.503906 22.824219 10.140625 23.445312 9.574219 C 23.132812 10.363281 22.476562 11.125 21.792969 11.617188 C 21.382812 11.914062 20.945312 12.167969 20.550781 12.484375 C 20.011719 12.914062 19.535156 13.433594 19.132812 13.992188 C 17.730469 15.941406 17.160156 18.324219 17.121094 20.699219 C 17.109375 21.335938 17.121094 22.007812 17.222656 22.636719 C 17.5 20.960938 18.25 19.035156 19.40625 17.765625 C 19.695312 17.449219 20.03125 17.195312 20.359375 16.917969 C 20.269531 17.414062 20.019531 17.804688 19.789062 18.246094 C 19.644531 18.519531 19.515625 18.800781 19.394531 19.085938 C 18.441406 21.339844 17.90625 24.160156 18.097656 26.605469 C 18.402344 25.460938 19.046875 24.011719 19.703125 23.023438 C 20.09375 22.4375 20.550781 21.917969 21.015625 21.386719 C 21.308594 21.050781 21.597656 20.707031 21.910156 20.386719 C 21.398438 22.835938 20.59375 25.421875 19.007812 27.40625 C 18.585938 27.933594 18.109375 28.394531 17.597656 28.835938 C 18.203125 28.722656 18.804688 28.609375 19.402344 28.457031 C 22.683594 27.617188 25.324219 26.070312 27.542969 23.492188 C 29.324219 21.429688 30.347656 18.769531 30.140625 16.03125 C 30.460938 16.1875 30.777344 16.347656 31.078125 16.539062 C 32.234375 17.292969 33.285156 18.460938 33.832031 19.734375 C 34.351562 20.953125 34.476562 22.375 34.179688 23.667969 C 34.074219 24.132812 33.910156 24.570312 33.734375 25.011719 C 33.734375 24.65625 33.722656 24.296875 33.683594 23.941406 C 33.445312 21.691406 32.203125 19.363281 30.441406 17.941406 C 30.460938 18.484375 30.457031 19.03125 30.390625 19.570312 C 30.070312 22.152344 28.511719 24.933594 26.457031 26.535156 C 25.703125 27.125 24.804688 27.570312 23.945312 27.980469 C 21.867188 28.976562 19.875 29.734375 17.554688 29.917969 C 17.027344 29.960938 16.488281 29.992188 15.960938 29.925781 C 16.488281 30.101562 17.007812 30.277344 17.558594 30.367188 C 18.144531 30.460938 18.726562 30.445312 19.316406 30.40625 C 18.753906 31.675781 17.347656 33.082031 16.3125 33.976562 C 16.648438 33.816406 16.972656 33.609375 17.285156 33.410156 C 18.90625 32.382812 20.328125 31.074219 21.707031 29.746094 C 20.644531 31.765625 18.332031 33.800781 16.417969 34.996094 Z M 23.316406 22.296875 C 23.742188 21.511719 24.296875 20.617188 24.640625 19.804688 C 24.804688 19.414062 24.964844 18.941406 25.007812 18.519531 L 25.027344 18.492188 C 24.925781 21.527344 23.210938 24.289062 21.054688 26.324219 C 21 26.375 20.945312 26.429688 20.882812 26.472656 C 21.863281 25.195312 22.554688 23.707031 23.316406 22.296875 Z M 24.414062 12.207031 C 25.652344 12.238281 26.828125 12.625 27.699219 13.546875 C 28.601562 14.5 29.023438 15.71875 28.984375 17.023438 C 28.914062 19.441406 27.582031 21.9375 25.835938 23.566406 C 25.042969 24.308594 24.167969 24.820312 23.210938 25.316406 C 25.480469 23.445312 27.347656 20.589844 27.632812 17.613281 C 27.761719 16.28125 27.601562 14.875 26.714844 13.8125 C 26.445312 13.484375 26.089844 13.164062 25.683594 13.015625 C 26.46875 13.867188 26.648438 15.191406 26.605469 16.304688 C 26.578125 17.101562 26.339844 18.433594 25.980469 19.140625 C 26.40625 17.277344 26.152344 15.011719 25.121094 13.367188 C 25.019531 13.207031 24.910156 13.058594 24.785156 12.917969 C 24.894531 13.191406 24.996094 13.460938 25.058594 13.753906 C 25.351562 15.078125 25.085938 16.566406 24.554688 17.804688 C 24.410156 18.140625 24.242188 18.46875 24.070312 18.792969 C 23.699219 19.441406 23.214844 20.183594 22.710938 20.730469 C 23.632812 18.980469 24.292969 16.503906 24.253906 14.519531 C 24.246094 14.039062 24.171875 13.574219 24.09375 13.101562 C 24.054688 13.6875 24.007812 14.246094 23.859375 14.820312 C 23.363281 16.710938 21.847656 18.976562 20.375 20.257812 C 20.183594 20.425781 19.988281 20.589844 19.785156 20.746094 C 20.054688 20.398438 20.277344 20.015625 20.511719 19.644531 C 21.464844 18.125 23.050781 15.328125 23.289062 13.601562 C 22.65625 14.832031 22.144531 15.4375 21.191406 16.441406 C 21.007812 16.632812 20.835938 16.839844 20.652344 17.027344 C 21.335938 15.675781 21.972656 14.199219 22.972656 13.050781 C 21.621094 13.765625 20.09375 15.746094 18.90625 16.835938 C 19.597656 15.019531 20.757812 13.398438 22.578125 12.585938 C 23.171875 12.320312 23.769531 12.214844 24.414062 12.207031 Z M 34.761719 19.695312 C 34.28125 17.78125 32.9375 16.375 31.28125 15.386719 C 30.808594 15.101562 30.320312 14.902344 29.800781 14.722656 C 29.304688 13.414062 28.175781 12.378906 26.917969 11.808594 C 26.496094 11.617188 26.070312 11.492188 25.617188 11.390625 C 25.917969 10.511719 25.996094 9.761719 26.101562 8.855469 C 25.644531 9.6875 25.09375 10.460938 24.460938 11.167969 C 25.179688 8.070312 26.273438 5.738281 29.027344 3.972656 C 27.773438 4.25 26.714844 4.996094 25.820312 5.890625 C 26.554688 4.40625 27.878906 3.085938 29.464844 2.550781 C 30.0625 2.347656 31.0625 2.15625 31.691406 2.261719 C 32.917969 2.394531 33.964844 2.886719 34.824219 3.773438 C 34.167969 4.691406 33.925781 5.523438 33.519531 6.546875 C 33.265625 6.710938 32.992188 6.851562 32.734375 7.015625 C 32.027344 7.476562 31.285156 8.113281 30.925781 8.898438 C 30.820312 9.132812 30.757812 9.375 30.695312 9.621094 C 29.855469 9.273438 29.277344 8.742188 28.921875 7.894531 C 28.585938 7.097656 28.585938 6.304688 28.632812 5.460938 C 28.171875 6.554688 27.980469 7.804688 28.441406 8.9375 C 28.707031 9.589844 29.203125 10.183594 29.808594 10.542969 C 30.140625 10.742188 30.5 10.898438 30.832031 11.089844 C 31.710938 11.601562 32.535156 12.257812 33.035156 13.15625 C 32.078125 12.417969 31.003906 11.839844 29.863281 11.441406 C 30.035156 11.613281 30.242188 11.761719 30.433594 11.914062 C 30.664062 12.101562 30.886719 12.296875 31.105469 12.5 C 29.496094 12.144531 28.519531 11.542969 27.617188 10.132812 C 27.296875 9.632812 27.019531 9.085938 26.796875 8.53125 C 26.847656 8.953125 26.890625 9.375 26.984375 9.792969 C 27.214844 10.828125 27.769531 11.863281 28.609375 12.53125 C 29.570312 13.292969 30.761719 13.417969 31.851562 13.890625 C 33.058594 14.457031 33.84375 15.28125 34.296875 16.542969 C 34.65625 17.546875 34.773438 18.632812 34.761719 19.695312 Z M 30.425781 3.804688 C 30.378906 4.246094 30.425781 4.652344 30.660156 5.039062 C 30.890625 5.414062 31.261719 5.691406 31.691406 5.792969 C 32.117188 5.890625 32.609375 5.828125 32.980469 5.589844 C 33.265625 5.40625 33.460938 5.113281 33.535156 4.785156 C 33.601562 4.460938 33.527344 4.136719 33.339844 3.863281 C 33.128906 3.554688 32.839844 3.386719 32.480469 3.3125 C 32.230469 3.292969 31.992188 3.300781 31.789062 3.472656 C 31.628906 3.609375 31.542969 3.8125 31.523438 4.019531 C 31.503906 4.25 31.578125 4.484375 31.730469 4.65625 C 31.855469 4.796875 32.023438 4.886719 32.214844 4.886719 C 32.40625 4.890625 32.621094 4.804688 32.753906 4.664062 C 32.949219 4.460938 32.949219 4.1875 32.949219 3.921875 C 33.023438 4.140625 33.085938 4.347656 33.046875 4.585938 C 33.011719 4.8125 32.894531 5.015625 32.703125 5.144531 C 32.449219 5.316406 32.113281 5.351562 31.820312 5.292969 C 31.316406 5.1875 30.984375 4.839844 30.710938 4.421875 C 30.601562 4.222656 30.511719 4.019531 30.425781 3.804688 Z M 32.308594 3.90625 C 32.25 3.972656 32.171875 4 32.082031 4.003906 C 32.050781 4.003906 32.042969 4.003906 32.015625 4 C 31.945312 3.941406 31.863281 3.867188 31.855469 3.773438 C 31.851562 3.707031 31.863281 3.652344 31.910156 3.605469 C 31.992188 3.527344 32.09375 3.523438 32.199219 3.523438 C 32.28125 3.578125 32.351562 3.621094 32.363281 3.730469 C 32.371094 3.792969 32.351562 3.855469 32.308594 3.90625 Z M 32.308594 3.90625 " fill-opacity="1" fill-rule="nonzero"/></g></svg>